<?xml version="1.0" standalone="no"?>
<!DOCTYPE svg PUBLIC "-//W3C//DTD SVG 20010904//EN"
 "http://www.w3.org/TR/2001/REC-SVG-20010904/DTD/svg10.dtd">
<svg version="1.0" xmlns="http://www.w3.org/2000/svg"
 width="245.000000pt" height="206.000000pt" viewBox="0 0 245.000000 206.000000"
 preserveAspectRatio="xMidYMid meet">

<g transform="translate(0.000000,206.000000) scale(0.100000,-0.100000)"
fill="#000000" stroke="none">
<path d="M1316 2044 c-11 -11 -16 -35 -16 -80 l0 -64 -554 0 c-598 0 -582 1
-574 -52 l3 -23 1028 -3 1027 -2 0 -595 0 -595 -751 -2 c-704 -3 -753 -4 -763
-20 -8 -13 -8 -23 0 -35 10 -16 38 -18 303 -21 l291 -2 0 -89 0 -88 -140 -133
c-77 -72 -140 -140 -140 -149 0 -21 19 -41 40 -41 9 0 67 48 128 106 l112 106
0 -120 c0 -134 9 -155 55 -134 25 11 25 14 25 128 l0 116 107 -101 c59 -56
114 -101 123 -101 21 0 40 20 40 41 0 10 -61 75 -135 145 l-135 127 0 94 0 93
520 0 c509 0 520 0 530 20 8 14 8 26 0 40 -9 17 -21 20 -70 20 l-60 0 0 595 0
594 63 3 c56 3 62 5 65 26 8 53 21 52 -539 52 l-519 0 0 68 c0 86 -25 116 -64
76z"/>
<path d="M282 1629 c-62 -31 -112 -108 -112 -173 0 -74 62 -165 127 -187 19
-6 62 -9 94 -7 46 3 66 10 96 34 82 67 101 173 47 261 -54 87 -160 117 -252
72z"/>
<path d="M268 1216 c-15 -11 -10 -19 46 -81 l62 -68 62 68 63 69 -25 13 c-19
10 -36 11 -67 4 -23 -5 -47 -8 -53 -6 -38 11 -73 12 -88 1z"/>
<path d="M85 1148 c-39 -14 -53 -26 -71 -60 -13 -26 -13 -49 1 -206 23 -253
35 -287 105 -298 44 -7 42 1 60 -194 20 -215 25 -220 203 -220 99 0 118 3 139
20 37 29 45 57 68 255 18 153 57 412 76 508 l6 27 131 0 c148 0 191 13 215 63
11 23 11 34 1 59 -21 51 -54 58 -276 58 l-198 1 -85 -90 -85 -90 -79 89 -79
90 -51 -1 c-28 0 -64 -5 -81 -11z"/>
</g>
</svg>
